<?xml version="1.0" encoding="UTF-8"?>
<svg xmlns="http://www.w3.org/2000/svg" width="100" height="100" viewBox="0 0 100 100">
  <defs>
    <style>.a{fill:#fff;}.b{fill:#deaf44;}</style>
  </defs>
  <rect width="100" height="100"></rect>
  <path class="a" d="M38,56.41H4.42a1.92,1.92,0,0,1,0-3.84H38a1.92,1.92,0,0,1,0,3.84Z"></path>
  <path class="a" d="M39.44,66H10.66a1.92,1.92,0,1,1,0-3.84H39.44a1.92,1.92,0,0,1,0,3.84Z"></path>
  <path class="a" d="M39.44,46.81H10.66a1.92,1.92,0,1,1,0-3.84H39.44a1.92,1.92,0,0,1,0,3.84Z"></path>
  <path class="a" d="M66.79,85.19A30.83,30.83,0,0,1,44.43,75.6H21.21a1.92,1.92,0,1,1,0-3.84H46.13l.57.64a26.87,26.87,0,1,0-.06-35.76l-.58.65-24.85-.08a1.92,1.92,0,1,1,0-3.83h0l23.13.07A30.73,30.73,0,1,1,66.79,85.19Z"></path>
  <rect class="a" x="64.92" y="18.5" width="4.8" height="7.2"></rect>
  <rect class="a" x="60.12" y="14.81" width="14.39" height="4.8" rx="2.4"></rect>
  <rect class="a" x="87.84" y="29.84" width="2.88" height="4.32" transform="translate(48.78 -53.76) rotate(45)"></rect>
  <rect class="a" x="87.04" y="28.48" width="8.64" height="2.88" rx="1.44" transform="translate(47.92 -55.83) rotate(45)"></rect>
  <path class="b" d="M66.79,31.7A22.79,22.79,0,1,0,89.58,54.49,22.79,22.79,0,0,0,66.79,31.7ZM78.94,48.46,65.32,62.09a1.93,1.93,0,0,1-2.72,0l-6.81-6.82a1.92,1.92,0,0,1,2.71-2.71L64,58,76.23,45.74a1.92,1.92,0,1,1,2.71,2.72Z"></path>
</svg>
