<?xml version="1.0" encoding="UTF-8"?>
<svg xmlns="http://www.w3.org/2000/svg" width="50" height="50" viewBox="0 0 50 50">
  <defs>
    <style>.a{fill:#dfae46;}</style>
  </defs>
  <path class="a" d="M46.43,0H3.57A3.59,3.59,0,0,0,0,3.57V46.43A3.59,3.59,0,0,0,3.57,50H46.43A3.59,3.59,0,0,0,50,46.43V3.57A3.59,3.59,0,0,0,46.43,0ZM7.09,4.36a2.5,2.5,0,1,1-2.5,2.5A2.49,2.49,0,0,1,7.09,4.36Zm0,40.71a2.5,2.5,0,1,1,2.5-2.5A2.5,2.5,0,0,1,7.09,45.07ZM25,42.57A17.86,17.86,0,1,1,42.81,24.72,17.86,17.86,0,0,1,25,42.57Zm17.86,2.5a2.5,2.5,0,1,1,2.5-2.5A2.5,2.5,0,0,1,42.81,45.07Zm0-35.71a2.5,2.5,0,1,1,2.5-2.5A2.5,2.5,0,0,1,42.81,9.36Z"></path>
  <path class="a" d="M17.81,14.72H32.09a1.79,1.79,0,0,0,0-3.58H17.81a1.79,1.79,0,1,0,0,3.58Z"></path>
  <path class="a" d="M14.24,20.61H35.67a1.79,1.79,0,0,0,0-3.57H14.24a1.79,1.79,0,1,0,0,3.57Z"></path>
  <path class="a" d="M38.34,22.93H11.56a1.79,1.79,0,1,0,0,3.57H38.34a1.79,1.79,0,1,0,0-3.57Z"></path>
  <path class="a" d="M35.67,28.82H14.24a1.79,1.79,0,1,0,0,3.57H35.67a1.79,1.79,0,0,0,0-3.57Z"></path>
  <path class="a" d="M32.09,34.72H17.81a1.79,1.79,0,1,0,0,3.57H32.09a1.79,1.79,0,1,0,0-3.57Z"></path>
</svg>
