<?xml version="1.0" encoding="UTF-8"?>
<svg xmlns="http://www.w3.org/2000/svg" width="100" height="100" viewBox="0 0 100 100">
  <defs>
    <style>.a{fill:#fff;}.b{fill:#deaf44;}</style>
  </defs>
  <rect width="100" height="100"></rect>
  <path class="a" d="M33.57,63a1.71,1.71,0,0,1,1.25.51,1.73,1.73,0,0,1,.51,1.26V82.4a1.71,1.71,0,0,1-.51,1.25,1.68,1.68,0,0,1-1.25.52H27.68a1.78,1.78,0,0,1-1.77-1.77V64.74A1.76,1.76,0,0,1,27.68,63ZM54.18,52.44q0-3.52-2-5a5.49,5.49,0,0,0-3.31-1c-.64,0-1.2.54-1.69,1.62a19.33,19.33,0,0,0-.81,2.58v.07a17.65,17.65,0,0,1-.67,2.36,5.15,5.15,0,0,1-1.17,2,24,24,0,0,0-2.95,3.68A38.62,38.62,0,0,1,38,63.41a.71.71,0,0,0-.29.59V79.75a.89.89,0,0,0,.88.89,10.49,10.49,0,0,1,3.79,1.14,36.2,36.2,0,0,0,4,1.58,15.65,15.65,0,0,0,4.85.81h.23a27.55,27.55,0,0,0,4.78-.3A5,5,0,0,0,59.77,82a4,4,0,0,0,.52-3.31,6.07,6.07,0,0,0,1.25-2.57,5.45,5.45,0,0,0-.07-3,5.5,5.5,0,0,0,1.1-2.87,6.22,6.22,0,0,0-.44-3h.07a5.86,5.86,0,0,0,1-1.62,5,5,0,0,0,.4-2,4.11,4.11,0,0,0-1.29-3,4.29,4.29,0,0,0-3.13-1.28H51.75a10,10,0,0,1,1-2.29,20.32,20.32,0,0,0,1-2.06A8.41,8.41,0,0,0,54.18,52.44Z"></path>
  <path class="b" d="M5.14,48A.81.81,0,0,1,5,47.42a.85.85,0,0,1,.29-.49.7.7,0,0,1,.55-.17l3.6.25,2.25-2.84a.79.79,0,0,1,.51-.29.81.81,0,0,1,.55.13.71.71,0,0,1,.33.46L14,48l3.4,1.27a.73.73,0,0,1,.42.37.69.69,0,0,1,.06.56.78.78,0,0,1-.35.45l-3.06,1.94-.17,3.62a.77.77,0,0,1-.22.52.72.72,0,0,1-.52.23.78.78,0,0,1-.53-.19l-2.79-2.33-3.49,1a.77.77,0,0,1-.56-.06.82.82,0,0,1-.38-.42.73.73,0,0,1,0-.58L7.13,51Z"></path>
  <path class="b" d="M20.37,28a.92.92,0,0,1,.19-.7,1.07,1.07,0,0,1,.6-.38.91.91,0,0,1,.71.13l3.85,2.35,4.13-1.84a.93.93,0,0,1,.73,0,1,1,0,0,1,.54.46.93.93,0,0,1,.1.7L30.16,33l3,3.38a.94.94,0,0,1,.25.66.87.87,0,0,1-.25.65,1,1,0,0,1-.65.3L28,38.41l-2.28,3.91a1,1,0,0,1-.55.46.9.9,0,0,1-.7-.05,1,1,0,0,1-.49-.51L22.28,38l-4.44-.94a.9.9,0,0,1-.59-.39,1,1,0,0,1-.18-.68.91.91,0,0,1,.34-.65l3.44-2.93Z"></path>
  <path class="b" d="M49.21,16.48a1.08,1.08,0,0,1,.65-.58,1.24,1.24,0,0,1,.85,0,1.09,1.09,0,0,1,.63.6l2.31,4.9,5.36.86a1.09,1.09,0,0,1,.75.45,1.28,1.28,0,0,1,.25.82,1.11,1.11,0,0,1-.37.76l-4,3.73.83,5.39a1.13,1.13,0,0,1-.17.82,1.11,1.11,0,0,1-.69.49,1.15,1.15,0,0,1-.85-.13L50,32l-4.86,2.43a1.14,1.14,0,0,1-.85.09,1.16,1.16,0,0,1-.82-1.34l1-5.35L40.66,24a1.12,1.12,0,0,1-.34-.78,1.19,1.19,0,0,1,.27-.8,1.11,1.11,0,0,1,.76-.43l5.39-.69Z"></path>
  <path class="b" d="M78.14,27a.94.94,0,0,1,.72-.13,1.07,1.07,0,0,1,.6.38.94.94,0,0,1,.19.7l-.48,4.49,3.44,2.94a.92.92,0,0,1,.33.64,1,1,0,0,1-.18.69,1,1,0,0,1-.59.39L77.74,38,76,42.23a1,1,0,0,1-.49.51.9.9,0,0,1-.7,0,.91.91,0,0,1-.54-.46L72,38.42,67.47,38a1,1,0,0,1-.65-.3,1,1,0,0,1-.26-.66,1,1,0,0,1,.26-.65l3-3.38L68.8,28.64a.9.9,0,0,1,.1-.7,1,1,0,0,1,.54-.45,1,1,0,0,1,.73,0l4.13,1.85Z"></path>
  <path class="b" d="M94.15,46.76a.7.7,0,0,1,.55.17.85.85,0,0,1,.29.49.81.81,0,0,1-.13.57l-2,3,1.35,3.36a.73.73,0,0,1,0,.58.82.82,0,0,1-.38.42.77.77,0,0,1-.56.06l-3.49-1L87,56.76a.78.78,0,0,1-.53.19.72.72,0,0,1-.52-.23.77.77,0,0,1-.22-.52l-.17-3.62L82.5,50.64a.78.78,0,0,1-.35-.45.69.69,0,0,1,.06-.56.73.73,0,0,1,.42-.37L86,48l.88-3.52a.71.71,0,0,1,.33-.46.81.81,0,0,1,.55-.13.79.79,0,0,1,.51.29L90.55,47Z"></path>
</svg>
