<?xml version="1.0" encoding="UTF-8"?>
<svg xmlns="http://www.w3.org/2000/svg" width="37.1" height="50" viewBox="0 0 37.1 50">
  <defs>
    <style>.a{fill:#dfae46;}</style>
  </defs>
  <path class="a" d="M40.7,0H9.3A2.86,2.86,0,0,0,6.45,2.85v44.3A2.86,2.86,0,0,0,9.3,50H40.7a2.86,2.86,0,0,0,2.85-2.85V2.85A2.86,2.86,0,0,0,40.7,0ZM25,45.58a6.43,6.43,0,1,1,6.43-6.43A6.43,6.43,0,0,1,25,45.58ZM37.84,25.49A2.86,2.86,0,0,1,35,28.35H15a2.86,2.86,0,0,1-2.85-2.86V8.37A2.86,2.86,0,0,1,15,5.52H35a2.86,2.86,0,0,1,2.85,2.85Z" transform="translate(-6.45)"></path>
  <path class="a" d="M25,34.58a.86.86,0,0,0-.86.85v3a.86.86,0,0,0,1.72,0v-3A.86.86,0,0,0,25,34.58Z" transform="translate(-6.45)"></path>
  <path class="a" d="M20.76,10.81a1,1,0,1,0-1.59-1.2c-2.32,3.08-1.09,5.56-.1,7.56s1.66,3.34.1,5.41a1,1,0,0,0,.2,1.4,1,1,0,0,0,.6.2,1,1,0,0,0,.79-.4c2.3-3.05,1.08-5.52.1-7.5S19.19,12.91,20.76,10.81Z" transform="translate(-6.45)"></path>
  <path class="a" d="M25.8,10.81a1,1,0,1,0-1.59-1.2c-2.32,3.08-1.09,5.56-.1,7.56s1.66,3.34.1,5.41a1,1,0,0,0,.2,1.4,1,1,0,0,0,.6.2,1,1,0,0,0,.79-.4c2.31-3.05,1.08-5.52.1-7.5S24.23,12.91,25.8,10.81Z" transform="translate(-6.45)"></path>
  <path class="a" d="M30.85,10.81a1,1,0,0,0-1.6-1.2c-2.32,3.08-1.09,5.56-.1,7.56s1.66,3.34.1,5.41a1,1,0,0,0,.2,1.4,1,1,0,0,0,.6.2,1,1,0,0,0,.8-.4c2.3-3.05,1.07-5.52.09-7.5S29.27,12.91,30.85,10.81Z" transform="translate(-6.45)"></path>
</svg>
