<?xml version="1.0" encoding="UTF-8"?>
<!-- Generator: Adobe Illustrator 25.2.0, SVG Export Plug-In . SVG Version: 6.00 Build 0)  -->
<svg xmlns="http://www.w3.org/2000/svg" xmlns:xlink="http://www.w3.org/1999/xlink" version="1.1" id="Layer_1" x="0px" y="0px" viewBox="0 0 50 50" style="enable-background:new 0 0 50 50;" xml:space="preserve">
<style type="text/css">
	.st0{fill:#DFAE46;}
</style>
<path class="st0" d="M22.9,19h4.3c2.8,0,5,2.2,5,5v2.2c0,2.8-2.2,5-5,5h-4.3c-2.8,0-5-2.2-5-5V24C17.9,21.2,20.1,19,22.9,19z"></path>
<path class="st0" d="M49.1,50H38c-0.5,0.1-1-0.3-1-0.8s0.3-1,0.8-1c0.1,0,0.1,0,0.2,0h11.1c0.5-0.1,1,0.3,1,0.8s-0.3,1-0.8,1  C49.2,50,49.1,50,49.1,50z"></path>
<path class="st0" d="M0.9,0h11.1c0.5-0.1,1,0.3,1,0.8s-0.3,1-0.8,1c-0.1,0-0.1,0-0.2,0H0.9C0.4,1.9,0,1.5-0.1,1s0.3-1,0.8-1  C0.8,0,0.9,0,0.9,0z"></path>
<path class="st0" d="M20.3,32.4C20.2,35,18,37,15.5,36.8c-2.4-0.1-4.3-2-4.4-4.4V0.6H1.8v31.8C2,40.1,8.4,46.2,16.1,46  c7.4-0.2,13.3-6.1,13.5-13.5H20.3z M6.5,10.2c-1.1,0-2-0.9-2-2C4.7,7.3,5,6.5,5.4,5.8l1.1-2.2l1.1,2.1C8,6.5,8.3,7.3,8.5,8.1  C8.5,9.2,7.6,10.1,6.5,10.2C6.5,10.2,6.5,10.2,6.5,10.2z"></path>
<path class="st0" d="M34.3,3.7c-7.7,0-13.9,6.2-13.9,13.9h9.3c0.1-2.6,2.3-4.5,4.9-4.4c2.4,0.1,4.3,2,4.4,4.4v31.8h9.3V17.6  C48.2,9.9,42,3.7,34.3,3.7z M43.5,46.2c-1.1,0-2-0.9-2-2c0.2-0.8,0.5-1.6,0.9-2.4l1.1-2.1l1.1,2.1c0.4,0.7,0.7,1.5,0.9,2.4  C45.6,45.3,44.7,46.2,43.5,46.2C43.6,46.2,43.5,46.2,43.5,46.2z"></path>
</svg>
